<svg xmlns="http://www.w3.org/2000/svg" xmlns:xlink="http://www.w3.org/1999/xlink" width="2000" zoomAndPan="magnify" viewBox="0 0 1500 1499.999933" height="2000" preserveAspectRatio="xMidYMid meet" version="1.0"><defs><clipPath id="1c9794c021"><path d="M 0.488281 211.453125 L 131.667969 211.453125 L 131.667969 982.609375 L 0.488281 982.609375 Z M 0.488281 211.453125 " clip-rule="nonzero"/></clipPath><clipPath id="b69b742eba"><path d="M 0.488281 0.453125 L 131.667969 0.453125 L 131.667969 771.609375 L 0.488281 771.609375 Z M 0.488281 0.453125 " clip-rule="nonzero"/></clipPath><clipPath id="bc1f5cc57e"><rect x="0" width="132" y="0" height="772"/></clipPath><clipPath id="84bed608fb"><path d="M 0.484375 148.152344 L 495.300781 148.152344 L 495.300781 274.746094 L 0.484375 274.746094 Z M 0.484375 148.152344 " clip-rule="nonzero"/></clipPath><clipPath id="715794c792"><path d="M 0.484375 0.152344 L 495.300781 0.152344 L 495.300781 126.746094 L 0.484375 126.746094 Z M 0.484375 0.152344 " clip-rule="nonzero"/></clipPath><clipPath id="36c3221860"><rect x="0" width="496" y="0" height="127"/></clipPath><clipPath id="68a7221722"><path d="M 0.160156 0.398438 L 658 0.398438 L 658 727 L 0.160156 727 Z M 0.160156 0.398438 " clip-rule="nonzero"/></clipPath><clipPath id="4f8e37a411"><path d="M 558.597656 0.542969 L 657.4375 86.789062 L 99.324219 726.402344 L 0.480469 640.15625 Z M 558.597656 0.542969 " clip-rule="nonzero"/></clipPath><clipPath id="a01a3dfc08"><path d="M 0.398438 0.398438 L 657.519531 0.398438 L 657.519531 726.640625 L 0.398438 726.640625 Z M 0.398438 0.398438 " clip-rule="nonzero"/></clipPath><clipPath id="0edd18ed73"><path d="M 558.597656 0.542969 L 657.4375 86.789062 L 99.324219 726.402344 L 0.480469 640.15625 Z M 558.597656 0.542969 " clip-rule="nonzero"/></clipPath><clipPath id="e8994e7b71"><rect x="0" width="658" y="0" height="727"/></clipPath><clipPath id="94987f287f"><path d="M 554.683594 0.523438 L 1003.515625 0.523438 L 1003.515625 127.117188 L 554.683594 127.117188 Z M 554.683594 0.523438 " clip-rule="nonzero"/></clipPath><clipPath id="c9a02adaf6"><path d="M 0.683594 0.523438 L 449.515625 0.523438 L 449.515625 127.117188 L 0.683594 127.117188 Z M 0.683594 0.523438 " clip-rule="nonzero"/></clipPath><clipPath id="d42b348a70"><rect x="0" width="450" y="0" height="128"/></clipPath><clipPath id="f98ffe83e1"><path d="M 876.910156 0.523438 L 1003.503906 0.523438 L 1003.503906 417.367188 L 876.910156 417.367188 Z M 876.910156 0.523438 " clip-rule="nonzero"/></clipPath><clipPath id="88beb7386a"><path d="M 0.910156 0.523438 L 127.503906 0.523438 L 127.503906 417.367188 L 0.910156 417.367188 Z M 0.910156 0.523438 " clip-rule="nonzero"/></clipPath><clipPath id="4b0521ca68"><rect x="0" width="128" y="0" height="418"/></clipPath><clipPath id="c51c67542c"><path d="M 95 81 L 945 81 L 945 1027.839844 L 95 1027.839844 Z M 95 81 " clip-rule="nonzero"/></clipPath><clipPath id="b074fde645"><path d="M 845.652344 81.171875 L 944.496094 167.417969 L 194.035156 1027.464844 L 95.191406 941.21875 Z M 845.652344 81.171875 " clip-rule="nonzero"/></clipPath><clipPath id="834785309c"><path d="M 0 0.0390625 L 849.558594 0.0390625 L 849.558594 946.601562 L 0 946.601562 Z M 0 0.0390625 " clip-rule="nonzero"/></clipPath><clipPath id="d9f8e24ba9"><path d="M 750.652344 0.171875 L 849.496094 86.417969 L 99.035156 946.464844 L 0.191406 860.21875 Z M 750.652344 0.171875 " clip-rule="nonzero"/></clipPath><clipPath id="1e5842ece1"><rect x="0" width="850" y="0" height="947"/></clipPath><clipPath id="6cd8358cf3"><path d="M 508 417 L 1001 417 L 1001 927 L 508 927 Z M 508 417 " clip-rule="nonzero"/></clipPath><clipPath id="23ce7a8b72"><path d="M 508.78125 504.421875 L 600.703125 417.375 L 1000.527344 839.597656 L 908.605469 926.640625 Z M 508.78125 504.421875 " clip-rule="nonzero"/></clipPath><clipPath id="63f7fa4ef5"><path d="M 0.71875 0.28125 L 492.71875 0.28125 L 492.71875 509.800781 L 0.71875 509.800781 Z M 0.71875 0.28125 " clip-rule="nonzero"/></clipPath><clipPath id="f9c814fcfc"><path d="M 0.78125 87.421875 L 92.703125 0.375 L 492.527344 422.597656 L 400.605469 509.640625 Z M 0.78125 87.421875 " clip-rule="nonzero"/></clipPath><clipPath id="6c0f8ccfb8"><rect x="0" width="493" y="0" height="510"/></clipPath><clipPath id="9fd1ad1613"><path d="M 633.023438 900.855469 L 1000.523438 900.855469 L 1000.523438 1027.449219 L 633.023438 1027.449219 Z M 633.023438 900.855469 " clip-rule="nonzero"/></clipPath><clipPath id="b7f5b9b3dc"><path d="M 0.0234375 0.855469 L 367.523438 0.855469 L 367.523438 127.449219 L 0.0234375 127.449219 Z M 0.0234375 0.855469 " clip-rule="nonzero"/></clipPath><clipPath id="f35d5646ef"><rect x="0" width="368" y="0" height="128"/></clipPath><clipPath id="a5e6cc4456"><path d="M 380 674 L 725 674 L 725 1027.839844 L 380 1027.839844 Z M 380 674 " clip-rule="nonzero"/></clipPath><clipPath id="61aaccb6e8"><path d="M 380.59375 761.324219 L 472.515625 674.28125 L 724.527344 940.410156 L 632.609375 1027.457031 Z M 380.59375 761.324219 " clip-rule="nonzero"/></clipPath><clipPath id="edc33ffe04"><path d="M 0.558594 0.078125 L 344.71875 0.078125 L 344.71875 353.601562 L 0.558594 353.601562 Z M 0.558594 0.078125 " clip-rule="nonzero"/></clipPath><clipPath id="0e311fd2cc"><path d="M 0.59375 87.324219 L 92.515625 0.28125 L 344.527344 266.410156 L 252.609375 353.457031 Z M 0.59375 87.324219 " clip-rule="nonzero"/></clipPath><clipPath id="7c1557b51a"><rect x="0" width="345" y="0" height="354"/></clipPath><clipPath id="6394e5e10f"><path d="M 0.484375 900.859375 L 193.425781 900.859375 L 193.425781 1027.453125 L 0.484375 1027.453125 Z M 0.484375 900.859375 " clip-rule="nonzero"/></clipPath><clipPath id="dfc8590195"><path d="M 0.484375 0.859375 L 193.425781 0.859375 L 193.425781 127.453125 L 0.484375 127.453125 Z M 0.484375 0.859375 " clip-rule="nonzero"/></clipPath><clipPath id="55f8c9e17b"><rect x="0" width="194" y="0" height="128"/></clipPath><clipPath id="f84b345422"><path d="M 927.269531 839.597656 L 1000.519531 839.597656 L 1000.519531 1010.992188 L 927.269531 1010.992188 Z M 927.269531 839.597656 " clip-rule="nonzero"/></clipPath><clipPath id="ca765f0b97"><path d="M 0.269531 0.597656 L 73.519531 0.597656 L 73.519531 171.992188 L 0.269531 171.992188 Z M 0.269531 0.597656 " clip-rule="nonzero"/></clipPath><clipPath id="2ea0c47c4f"><rect x="0" width="74" y="0" height="172"/></clipPath><clipPath id="2f5cb47af0"><rect x="0" width="1004" y="0" height="1028"/></clipPath></defs><g transform="matrix(1, 0, 0, 1, 248, 236)"><g clip-path="url(#2f5cb47af0)"><g clip-path="url(#1c9794c021)"><g transform="matrix(1, 0, 0, 1, -0.000000000000028422, 211)"><g clip-path="url(#bc1f5cc57e)"><g clip-path="url(#b69b742eba)"><path fill="#000000" d="M 0.488281 0.453125 L 131.667969 0.453125 L 131.667969 771.644531 L 0.488281 771.644531 Z M 0.488281 0.453125 " fill-opacity="1" fill-rule="nonzero"/></g></g></g></g><g clip-path="url(#84bed608fb)"><g transform="matrix(1, 0, 0, 1, -0.000000000000028422, 148)"><g clip-path="url(#36c3221860)"><g clip-path="url(#715794c792)"><path fill="#000000" d="M 0.484375 126.746094 L 0.484375 0.152344 L 495.480469 0.152344 L 495.480469 126.746094 Z M 0.484375 126.746094 " fill-opacity="1" fill-rule="nonzero"/></g></g></g></g><g clip-path="url(#68a7221722)"><g clip-path="url(#4f8e37a411)"><g transform="matrix(1, 0, 0, 1, -0.000000000000028422, 0.000000000000113687)"><g clip-path="url(#e8994e7b71)"><g clip-path="url(#a01a3dfc08)"><g clip-path="url(#0edd18ed73)"><path fill="#000000" d="M 558.597656 0.542969 L 657.4375 86.789062 L 99.191406 726.554688 L 0.347656 640.308594 Z M 558.597656 0.542969 " fill-opacity="1" fill-rule="nonzero"/></g></g></g></g></g></g><g clip-path="url(#94987f287f)"><g transform="matrix(1, 0, 0, 1, 554, 0.000000000000113687)"><g clip-path="url(#d42b348a70)"><g clip-path="url(#c9a02adaf6)"><path fill="#000000" d="M 0.683594 127.117188 L 0.683594 0.523438 L 449.695312 0.523438 L 449.695312 127.117188 Z M 0.683594 127.117188 " fill-opacity="1" fill-rule="nonzero"/></g></g></g></g><g clip-path="url(#f98ffe83e1)"><g transform="matrix(1, 0, 0, 1, 876, 0.000000000000113687)"><g clip-path="url(#4b0521ca68)"><g clip-path="url(#88beb7386a)"><path fill="#000000" d="M 127.503906 417.367188 L 0.910156 417.367188 L 0.910156 0.5 L 127.503906 0.5 Z M 127.503906 417.367188 " fill-opacity="1" fill-rule="nonzero"/></g></g></g></g><g clip-path="url(#c51c67542c)"><g clip-path="url(#b074fde645)"><g transform="matrix(1, 0, 0, 1, 95, 81)"><g clip-path="url(#1e5842ece1)"><g clip-path="url(#834785309c)"><g clip-path="url(#d9f8e24ba9)"><path fill="#000000" d="M 750.652344 0.171875 L 849.496094 86.417969 L 98.875 946.644531 L 0.0351562 860.398438 Z M 750.652344 0.171875 " fill-opacity="1" fill-rule="nonzero"/></g></g></g></g></g></g><g clip-path="url(#6cd8358cf3)"><g clip-path="url(#23ce7a8b72)"><g transform="matrix(1, 0, 0, 1, 508, 417)"><g clip-path="url(#6c0f8ccfb8)"><g clip-path="url(#63f7fa4ef5)"><g clip-path="url(#f9c814fcfc)"><path fill="#000000" d="M 0.78125 87.421875 L 92.703125 0.375 L 492.558594 422.632812 L 400.640625 509.675781 Z M 0.78125 87.421875 " fill-opacity="1" fill-rule="nonzero"/></g></g></g></g></g></g><g clip-path="url(#9fd1ad1613)"><g transform="matrix(1, 0, 0, 1, 633, 900)"><g clip-path="url(#f35d5646ef)"><g clip-path="url(#b7f5b9b3dc)"><path fill="#000000" d="M 0.0234375 127.449219 L 0.0234375 0.855469 L 367.4375 0.855469 L 367.4375 127.449219 Z M 0.0234375 127.449219 " fill-opacity="1" fill-rule="nonzero"/></g></g></g></g><g clip-path="url(#a5e6cc4456)"><g clip-path="url(#61aaccb6e8)"><g transform="matrix(1, 0, 0, 1, 380, 674)"><g clip-path="url(#7c1557b51a)"><g clip-path="url(#edc33ffe04)"><g clip-path="url(#0e311fd2cc)"><path fill="#000000" d="M 0.59375 87.324219 L 92.515625 0.28125 L 344.464844 266.34375 L 252.542969 353.386719 Z M 0.59375 87.324219 " fill-opacity="1" fill-rule="nonzero"/></g></g></g></g></g></g><g clip-path="url(#6394e5e10f)"><g transform="matrix(1, 0, 0, 1, -0.000000000000028422, 900)"><g clip-path="url(#55f8c9e17b)"><g clip-path="url(#dfc8590195)"><path fill="#000000" d="M 0.484375 127.453125 L 0.484375 0.859375 L 193.34375 0.859375 L 193.34375 127.453125 Z M 0.484375 127.453125 " fill-opacity="1" fill-rule="nonzero"/></g></g></g></g><g clip-path="url(#f84b345422)"><g transform="matrix(1, 0, 0, 1, 927, 839)"><g clip-path="url(#2ea0c47c4f)"><g clip-path="url(#ca765f0b97)"><path fill="#000000" d="M 73.519531 171.992188 L 0.269531 171.992188 L 0.269531 0.601562 L 73.519531 0.601562 Z M 73.519531 171.992188 " fill-opacity="1" fill-rule="nonzero"/></g></g></g></g></g></g></svg>